<?xml version="1.0" standalone="no"?>
<!DOCTYPE svg PUBLIC "-//W3C//DTD SVG 20010904//EN"
 "http://www.w3.org/TR/2001/REC-SVG-20010904/DTD/svg10.dtd">
<svg version="1.0" xmlns="http://www.w3.org/2000/svg"
 width="260.000000pt" height="260.000000pt" viewBox="0 0 260.000000 260.000000"
 preserveAspectRatio="xMidYMid meet">
<metadata>
Created by potrace 1.11, written by Peter Selinger 2001-2013
</metadata>
<g transform="translate(0.000000,260.000000) scale(0.100000,-0.100000)"
fill="#000000" stroke="none">
<path d="M1135 2249 c-77 -22 -145 -120 -167 -238 -11 -60 -4 -162 18 -266 6
-27 -1 -21 -62 44 -83 89 -142 121 -227 121 -97 0 -184 -63 -222 -163 -38
-101 -1 -251 84 -336 42 -42 153 -103 209 -116 39 -8 41 -22 5 -31 -59 -13
-172 -75 -213 -116 -119 -119 -131 -312 -27 -425 52 -56 89 -73 165 -73 74 0
140 32 208 100 27 27 52 50 55 50 4 0 6 -44 5 -97 -1 -199 76 -327 210 -349
104 -16 206 59 243 181 12 37 21 94 21 127 0 53 -2 59 -17 53 -41 -18 -161
-45 -199 -45 -82 0 -144 70 -144 165 0 39 -7 60 -30 95 -31 46 -37 79 -20 96
7 7 5 20 -5 41 -17 34 -10 68 19 92 31 26 12 67 -50 108 -14 9 -31 28 -39 43
-12 24 -12 30 3 51 9 13 24 31 33 39 9 8 47 53 84 100 38 47 72 89 75 93 4 4
20 1 36 -8 31 -16 130 -20 152 -6 9 5 0 10 -28 15 -85 13 -164 75 -197 154
-22 54 -10 58 25 8 18 -25 36 -46 40 -46 4 0 7 46 7 103 1 145 36 253 114 351
17 22 30 44 28 49 -2 6 -19 18 -37 29 -37 19 -104 22 -155 7z"/>
<path d="M1590 2169 c45 -121 83 -167 308 -379 65 -62 83 -86 102 -135 55
-148 50 -280 -21 -485 -23 -67 -39 -123 -36 -126 7 -7 46 61 86 146 49 106 64
179 59 299 -8 183 -51 261 -232 418 -129 112 -188 176 -243 261 -18 28 -36 52
-38 52 -3 0 4 -23 15 -51z"/>
<path d="M1530 1929 c0 -44 92 -197 171 -284 46 -50 94 -114 108 -145 24 -51
26 -64 26 -202 0 -80 3 -144 7 -142 18 12 40 160 36 247 -5 117 -25 157 -127
257 -92 91 -137 146 -185 225 -20 33 -36 53 -36 44z"/>
</g>
</svg>
